<?xml version="1.0" encoding="UTF-8"?>
<svg id="b" data-name="Capa 2" xmlns="http://www.w3.org/2000/svg" xmlns:xlink="http://www.w3.org/1999/xlink" viewBox="0 0 89.94 90.88">
  <defs>
    <style>
      .g {
        fill: #364a5e;
      }

      .h {
        fill: #ee752a;
      }

      .i {
        clip-path: url(#f);
      }

      .j {
        fill: #2d3e50;
      }

      .k {
        fill: none;
      }

      .l {
        clip-path: url(#d);
      }

      .m {
        clip-path: url(#e);
      }
    </style>
    <clipPath id="d">
      <rect class="k" x="56.92" y="58.62" width="33.01" height="32.26"/>
    </clipPath>
    <clipPath id="e">
      <rect class="k" x="-9.73" y="-10.5" width="101.29" height="101.29" transform="translate(-.15 80.14) rotate(-88.7)"/>
    </clipPath>
    <clipPath id="f">
      <rect class="k" width="73.53" height="73.53"/>
    </clipPath>
  </defs>
  <g id="c" data-name="Capa 2">
    <g>
      <g class="l">
        <g class="m">
          <path class="g" d="M74.53,88.18l-16.75-17.57c-.08-.09-.15-.19-.21-.28,2.41-1.49,4.71-3.28,6.84-5.32,2.13-2.03,4.03-4.25,5.63-6.62.09.09.19.15.27.24l16.79,17.53c3.31,3.47,3.18,8.98-.28,12.29-3.46,3.31-8.98,3.19-12.29-.27Z"/>
          <path class="j" d="M64.41,65.01h0c2.13-2.03,4.03-4.25,5.63-6.62.09.09.19.15.27.24l16.79,17.53c3.31,3.47,3.18,8.98-.28,12.29l-22.41-23.45Z"/>
        </g>
      </g>
      <g class="i">
        <path class="h" d="M49.34,21.37L43.56.63C32.05-1.52,19.69,1.85,10.78,10.77c-.04.04-.09.1-.15.15l38.71,10.46Z"/>
        <path class="h" d="M29.95,17.96l-20.68-5.59C.75,21.96-1.9,34.9,1.32,46.58l28.62-28.62Z"/>
        <path class="h" d="M71.63,25.05c-1.75-5.22-4.71-10.12-8.85-14.28-4.94-4.94-10.94-8.18-17.27-9.72l10.93,39.18,15.19-15.18Z"/>
        <path class="h" d="M43.51,55.65l20.62,5.68c8.63-9.59,11.33-22.64,8.07-34.37l-28.7,28.7Z"/>
        <path class="h" d="M23.81,52.07l5.41,20.69c11.72,2.44,24.42-.88,33.52-9.97l-38.93-10.72Z"/>
        <path class="h" d="M1.91,48.49c1.75,5.22,4.71,10.12,8.85,14.28,4.75,4.75,10.47,7.93,16.52,9.53l-10.21-38.98L1.91,48.49Z"/>
      </g>
    </g>
  </g>
</svg>